<mxfile host="app.diagrams.net" modified="2022-04-19T11:47:09.057Z" agent="5.0 (Macintosh; Intel Mac OS X 10_13_1) AppleWebKit/537.36 (KHTML, like Gecko) Chrome/100.0.4896.127 Safari/537.36" etag="hbs3UU-utMj8XWME8R0Q" version="17.4.4" type="github">
  <diagram id="t7kSTi8LcDSRyWMwSgST" name="Page-1">
    <mxGraphModel dx="1826" dy="1137" grid="1" gridSize="10" guides="1" tooltips="1" connect="1" arrows="1" fold="1" page="0" pageScale="1" pageWidth="827" pageHeight="1169" math="0" shadow="0">
      <root>
        <mxCell id="0" />
        <mxCell id="1" parent="0" />
        <mxCell id="HUBFKe5cnwWDwWhOUPrv-109" style="edgeStyle=orthogonalEdgeStyle;rounded=0;orthogonalLoop=1;jettySize=auto;html=1;exitX=0.5;exitY=0;exitDx=0;exitDy=0;fontSize=24;strokeWidth=2;" edge="1" parent="1" source="HUBFKe5cnwWDwWhOUPrv-1">
          <mxGeometry relative="1" as="geometry">
            <mxPoint x="-135" y="-50" as="targetPoint" />
          </mxGeometry>
        </mxCell>
        <mxCell id="HUBFKe5cnwWDwWhOUPrv-1" value="&lt;font style=&quot;font-size: 14px&quot;&gt;[/s]&lt;/font&gt;" style="rounded=0;whiteSpace=wrap;html=1;fillColor=#ffe6cc;strokeColor=#d79b00;" vertex="1" parent="1">
          <mxGeometry x="-170" y="-20" width="70" height="30" as="geometry" />
        </mxCell>
        <mxCell id="HUBFKe5cnwWDwWhOUPrv-2" value="&lt;font style=&quot;font-size: 14px&quot;&gt;[MASK]&lt;/font&gt;" style="rounded=0;whiteSpace=wrap;html=1;fillColor=#ffe6cc;strokeColor=#d79b00;" vertex="1" parent="1">
          <mxGeometry x="-80" y="-20" width="70" height="30" as="geometry" />
        </mxCell>
        <mxCell id="HUBFKe5cnwWDwWhOUPrv-18" value="&lt;font style=&quot;font-size: 14px&quot;&gt;0&lt;/font&gt;" style="rounded=0;whiteSpace=wrap;html=1;fillColor=#dae8fc;strokeColor=#6c8ebf;" vertex="1" parent="1">
          <mxGeometry x="-170" y="40" width="70" height="30" as="geometry" />
        </mxCell>
        <mxCell id="HUBFKe5cnwWDwWhOUPrv-19" value="&lt;font style=&quot;font-size: 14px&quot;&gt;1&lt;/font&gt;" style="rounded=0;whiteSpace=wrap;html=1;fillColor=#dae8fc;strokeColor=#6c8ebf;" vertex="1" parent="1">
          <mxGeometry x="-80" y="40" width="70" height="30" as="geometry" />
        </mxCell>
        <mxCell id="HUBFKe5cnwWDwWhOUPrv-21" value="&lt;font style=&quot;font-size: 14px&quot;&gt;11&lt;/font&gt;" style="rounded=0;whiteSpace=wrap;html=1;fillColor=#dae8fc;strokeColor=#6c8ebf;" vertex="1" parent="1">
          <mxGeometry x="820" y="40" width="70" height="30" as="geometry" />
        </mxCell>
        <mxCell id="HUBFKe5cnwWDwWhOUPrv-22" value="&lt;font style=&quot;font-size: 14px&quot;&gt;10&lt;/font&gt;" style="rounded=0;whiteSpace=wrap;html=1;fillColor=#dae8fc;strokeColor=#6c8ebf;" vertex="1" parent="1">
          <mxGeometry x="730" y="40" width="70" height="30" as="geometry" />
        </mxCell>
        <mxCell id="HUBFKe5cnwWDwWhOUPrv-23" value="&lt;font style=&quot;font-size: 14px&quot;&gt;9&lt;/font&gt;" style="rounded=0;whiteSpace=wrap;html=1;fillColor=#dae8fc;strokeColor=#6c8ebf;" vertex="1" parent="1">
          <mxGeometry x="640" y="40" width="70" height="30" as="geometry" />
        </mxCell>
        <mxCell id="HUBFKe5cnwWDwWhOUPrv-24" value="&lt;font style=&quot;font-size: 14px&quot;&gt;8&lt;/font&gt;" style="rounded=0;whiteSpace=wrap;html=1;fillColor=#dae8fc;strokeColor=#6c8ebf;" vertex="1" parent="1">
          <mxGeometry x="550" y="40" width="70" height="30" as="geometry" />
        </mxCell>
        <mxCell id="HUBFKe5cnwWDwWhOUPrv-25" value="&lt;font style=&quot;font-size: 14px&quot;&gt;7&lt;/font&gt;" style="rounded=0;whiteSpace=wrap;html=1;fillColor=#dae8fc;strokeColor=#6c8ebf;" vertex="1" parent="1">
          <mxGeometry x="460" y="40" width="70" height="30" as="geometry" />
        </mxCell>
        <mxCell id="HUBFKe5cnwWDwWhOUPrv-26" value="&lt;font style=&quot;font-size: 14px&quot;&gt;6&lt;/font&gt;" style="rounded=0;whiteSpace=wrap;html=1;fillColor=#dae8fc;strokeColor=#6c8ebf;" vertex="1" parent="1">
          <mxGeometry x="370" y="40" width="70" height="30" as="geometry" />
        </mxCell>
        <mxCell id="HUBFKe5cnwWDwWhOUPrv-27" value="&lt;font style=&quot;font-size: 14px&quot;&gt;5&lt;/font&gt;" style="rounded=0;whiteSpace=wrap;html=1;fillColor=#dae8fc;strokeColor=#6c8ebf;" vertex="1" parent="1">
          <mxGeometry x="280" y="40" width="70" height="30" as="geometry" />
        </mxCell>
        <mxCell id="HUBFKe5cnwWDwWhOUPrv-28" value="&lt;font style=&quot;font-size: 14px&quot;&gt;4&lt;/font&gt;" style="rounded=0;whiteSpace=wrap;html=1;fillColor=#dae8fc;strokeColor=#6c8ebf;" vertex="1" parent="1">
          <mxGeometry x="190" y="40" width="70" height="30" as="geometry" />
        </mxCell>
        <mxCell id="HUBFKe5cnwWDwWhOUPrv-29" value="&lt;font style=&quot;font-size: 14px&quot;&gt;3&lt;/font&gt;" style="rounded=0;whiteSpace=wrap;html=1;fillColor=#dae8fc;strokeColor=#6c8ebf;" vertex="1" parent="1">
          <mxGeometry x="100" y="40" width="70" height="30" as="geometry" />
        </mxCell>
        <mxCell id="HUBFKe5cnwWDwWhOUPrv-30" value="&lt;font style=&quot;font-size: 14px&quot;&gt;2&lt;/font&gt;" style="rounded=0;whiteSpace=wrap;html=1;fillColor=#dae8fc;strokeColor=#6c8ebf;" vertex="1" parent="1">
          <mxGeometry x="10" y="40" width="70" height="30" as="geometry" />
        </mxCell>
        <mxCell id="HUBFKe5cnwWDwWhOUPrv-31" value="&lt;font style=&quot;font-size: 14px&quot;&gt;en&lt;/font&gt;" style="rounded=0;whiteSpace=wrap;html=1;fillColor=#d5e8d4;strokeColor=#82b366;" vertex="1" parent="1">
          <mxGeometry x="-170" y="100" width="70" height="30" as="geometry" />
        </mxCell>
        <mxCell id="HUBFKe5cnwWDwWhOUPrv-32" value="&lt;font style=&quot;font-size: 14px&quot;&gt;en&lt;/font&gt;" style="rounded=0;whiteSpace=wrap;html=1;fillColor=#d5e8d4;strokeColor=#82b366;" vertex="1" parent="1">
          <mxGeometry x="-80" y="100" width="70" height="30" as="geometry" />
        </mxCell>
        <mxCell id="HUBFKe5cnwWDwWhOUPrv-34" value="&lt;font style=&quot;font-size: 14px&quot;&gt;en&lt;/font&gt;" style="rounded=0;whiteSpace=wrap;html=1;fillColor=#d5e8d4;strokeColor=#82b366;" vertex="1" parent="1">
          <mxGeometry x="820" y="100" width="70" height="30" as="geometry" />
        </mxCell>
        <mxCell id="HUBFKe5cnwWDwWhOUPrv-35" value="&lt;font style=&quot;font-size: 14px&quot;&gt;en&lt;/font&gt;" style="rounded=0;whiteSpace=wrap;html=1;fillColor=#d5e8d4;strokeColor=#82b366;" vertex="1" parent="1">
          <mxGeometry x="730" y="100" width="70" height="30" as="geometry" />
        </mxCell>
        <mxCell id="HUBFKe5cnwWDwWhOUPrv-36" value="&lt;font style=&quot;font-size: 14px&quot;&gt;en&lt;/font&gt;" style="rounded=0;whiteSpace=wrap;html=1;fillColor=#d5e8d4;strokeColor=#82b366;" vertex="1" parent="1">
          <mxGeometry x="640" y="100" width="70" height="30" as="geometry" />
        </mxCell>
        <mxCell id="HUBFKe5cnwWDwWhOUPrv-37" value="&lt;font style=&quot;font-size: 14px&quot;&gt;en&lt;/font&gt;" style="rounded=0;whiteSpace=wrap;html=1;fillColor=#d5e8d4;strokeColor=#82b366;" vertex="1" parent="1">
          <mxGeometry x="550" y="100" width="70" height="30" as="geometry" />
        </mxCell>
        <mxCell id="HUBFKe5cnwWDwWhOUPrv-38" value="&lt;font style=&quot;font-size: 14px&quot;&gt;en&lt;/font&gt;" style="rounded=0;whiteSpace=wrap;html=1;fillColor=#d5e8d4;strokeColor=#82b366;" vertex="1" parent="1">
          <mxGeometry x="460" y="100" width="70" height="30" as="geometry" />
        </mxCell>
        <mxCell id="HUBFKe5cnwWDwWhOUPrv-39" value="&lt;font style=&quot;font-size: 14px&quot;&gt;en&lt;/font&gt;" style="rounded=0;whiteSpace=wrap;html=1;fillColor=#d5e8d4;strokeColor=#82b366;" vertex="1" parent="1">
          <mxGeometry x="370" y="100" width="70" height="30" as="geometry" />
        </mxCell>
        <mxCell id="HUBFKe5cnwWDwWhOUPrv-40" value="&lt;font style=&quot;font-size: 14px&quot;&gt;en&lt;/font&gt;" style="rounded=0;whiteSpace=wrap;html=1;fillColor=#d5e8d4;strokeColor=#82b366;" vertex="1" parent="1">
          <mxGeometry x="280" y="100" width="70" height="30" as="geometry" />
        </mxCell>
        <mxCell id="HUBFKe5cnwWDwWhOUPrv-41" value="&lt;font style=&quot;font-size: 14px&quot;&gt;en&lt;/font&gt;" style="rounded=0;whiteSpace=wrap;html=1;fillColor=#d5e8d4;strokeColor=#82b366;" vertex="1" parent="1">
          <mxGeometry x="190" y="100" width="70" height="30" as="geometry" />
        </mxCell>
        <mxCell id="HUBFKe5cnwWDwWhOUPrv-42" value="&lt;font style=&quot;font-size: 14px&quot;&gt;en&lt;/font&gt;" style="rounded=0;whiteSpace=wrap;html=1;fillColor=#d5e8d4;strokeColor=#82b366;" vertex="1" parent="1">
          <mxGeometry x="100" y="100" width="70" height="30" as="geometry" />
        </mxCell>
        <mxCell id="HUBFKe5cnwWDwWhOUPrv-43" value="&lt;font style=&quot;font-size: 14px&quot;&gt;en&lt;/font&gt;" style="rounded=0;whiteSpace=wrap;html=1;fillColor=#d5e8d4;strokeColor=#82b366;" vertex="1" parent="1">
          <mxGeometry x="10" y="100" width="70" height="30" as="geometry" />
        </mxCell>
        <mxCell id="HUBFKe5cnwWDwWhOUPrv-83" value="&lt;font style=&quot;font-size: 24px&quot;&gt;+&lt;/font&gt;" style="text;html=1;align=center;verticalAlign=middle;resizable=0;points=[];autosize=1;strokeColor=none;fillColor=none;fontSize=14;" vertex="1" parent="1">
          <mxGeometry x="-150" y="70" width="30" height="30" as="geometry" />
        </mxCell>
        <mxCell id="HUBFKe5cnwWDwWhOUPrv-84" value="&lt;font style=&quot;font-size: 24px&quot;&gt;+&lt;/font&gt;" style="text;html=1;align=center;verticalAlign=middle;resizable=0;points=[];autosize=1;strokeColor=none;fillColor=none;fontSize=14;" vertex="1" parent="1">
          <mxGeometry x="-60" y="70" width="30" height="30" as="geometry" />
        </mxCell>
        <mxCell id="HUBFKe5cnwWDwWhOUPrv-85" value="&lt;font style=&quot;font-size: 24px&quot;&gt;+&lt;/font&gt;" style="text;html=1;align=center;verticalAlign=middle;resizable=0;points=[];autosize=1;strokeColor=none;fillColor=none;fontSize=14;" vertex="1" parent="1">
          <mxGeometry x="30" y="70" width="30" height="30" as="geometry" />
        </mxCell>
        <mxCell id="HUBFKe5cnwWDwWhOUPrv-86" value="&lt;font style=&quot;font-size: 24px&quot;&gt;+&lt;/font&gt;" style="text;html=1;align=center;verticalAlign=middle;resizable=0;points=[];autosize=1;strokeColor=none;fillColor=none;fontSize=14;" vertex="1" parent="1">
          <mxGeometry x="120" y="70" width="30" height="30" as="geometry" />
        </mxCell>
        <mxCell id="HUBFKe5cnwWDwWhOUPrv-87" value="&lt;font style=&quot;font-size: 24px&quot;&gt;+&lt;/font&gt;" style="text;html=1;align=center;verticalAlign=middle;resizable=0;points=[];autosize=1;strokeColor=none;fillColor=none;fontSize=14;" vertex="1" parent="1">
          <mxGeometry x="210" y="70" width="30" height="30" as="geometry" />
        </mxCell>
        <mxCell id="HUBFKe5cnwWDwWhOUPrv-88" value="&lt;font style=&quot;font-size: 24px&quot;&gt;+&lt;/font&gt;" style="text;html=1;align=center;verticalAlign=middle;resizable=0;points=[];autosize=1;strokeColor=none;fillColor=none;fontSize=14;" vertex="1" parent="1">
          <mxGeometry x="300" y="70" width="30" height="30" as="geometry" />
        </mxCell>
        <mxCell id="HUBFKe5cnwWDwWhOUPrv-89" value="&lt;font style=&quot;font-size: 24px&quot;&gt;+&lt;/font&gt;" style="text;html=1;align=center;verticalAlign=middle;resizable=0;points=[];autosize=1;strokeColor=none;fillColor=none;fontSize=14;" vertex="1" parent="1">
          <mxGeometry x="390" y="70" width="30" height="30" as="geometry" />
        </mxCell>
        <mxCell id="HUBFKe5cnwWDwWhOUPrv-90" value="&lt;font style=&quot;font-size: 24px&quot;&gt;+&lt;/font&gt;" style="text;html=1;align=center;verticalAlign=middle;resizable=0;points=[];autosize=1;strokeColor=none;fillColor=none;fontSize=14;" vertex="1" parent="1">
          <mxGeometry x="480" y="70" width="30" height="30" as="geometry" />
        </mxCell>
        <mxCell id="HUBFKe5cnwWDwWhOUPrv-91" value="&lt;font style=&quot;font-size: 24px&quot;&gt;+&lt;/font&gt;" style="text;html=1;align=center;verticalAlign=middle;resizable=0;points=[];autosize=1;strokeColor=none;fillColor=none;fontSize=14;" vertex="1" parent="1">
          <mxGeometry x="570" y="70" width="30" height="30" as="geometry" />
        </mxCell>
        <mxCell id="HUBFKe5cnwWDwWhOUPrv-92" value="&lt;font style=&quot;font-size: 24px&quot;&gt;+&lt;/font&gt;" style="text;html=1;align=center;verticalAlign=middle;resizable=0;points=[];autosize=1;strokeColor=none;fillColor=none;fontSize=14;" vertex="1" parent="1">
          <mxGeometry x="750" y="70" width="30" height="30" as="geometry" />
        </mxCell>
        <mxCell id="HUBFKe5cnwWDwWhOUPrv-93" value="&lt;font style=&quot;font-size: 24px&quot;&gt;+&lt;/font&gt;" style="text;html=1;align=center;verticalAlign=middle;resizable=0;points=[];autosize=1;strokeColor=none;fillColor=none;fontSize=14;" vertex="1" parent="1">
          <mxGeometry x="660" y="70" width="30" height="30" as="geometry" />
        </mxCell>
        <mxCell id="HUBFKe5cnwWDwWhOUPrv-94" value="&lt;font style=&quot;font-size: 24px&quot;&gt;+&lt;/font&gt;" style="text;html=1;align=center;verticalAlign=middle;resizable=0;points=[];autosize=1;strokeColor=none;fillColor=none;fontSize=14;" vertex="1" parent="1">
          <mxGeometry x="840" y="70" width="30" height="30" as="geometry" />
        </mxCell>
        <mxCell id="HUBFKe5cnwWDwWhOUPrv-96" value="&lt;font style=&quot;font-size: 24px&quot;&gt;+&lt;/font&gt;" style="text;html=1;align=center;verticalAlign=middle;resizable=0;points=[];autosize=1;strokeColor=none;fillColor=none;fontSize=14;" vertex="1" parent="1">
          <mxGeometry x="-150" y="10" width="30" height="30" as="geometry" />
        </mxCell>
        <mxCell id="HUBFKe5cnwWDwWhOUPrv-97" value="&lt;font style=&quot;font-size: 24px&quot;&gt;+&lt;/font&gt;" style="text;html=1;align=center;verticalAlign=middle;resizable=0;points=[];autosize=1;strokeColor=none;fillColor=none;fontSize=14;" vertex="1" parent="1">
          <mxGeometry x="-60" y="10" width="30" height="30" as="geometry" />
        </mxCell>
        <mxCell id="HUBFKe5cnwWDwWhOUPrv-98" value="&lt;font style=&quot;font-size: 24px&quot;&gt;+&lt;/font&gt;" style="text;html=1;align=center;verticalAlign=middle;resizable=0;points=[];autosize=1;strokeColor=none;fillColor=none;fontSize=14;" vertex="1" parent="1">
          <mxGeometry x="30" y="10" width="30" height="30" as="geometry" />
        </mxCell>
        <mxCell id="HUBFKe5cnwWDwWhOUPrv-99" value="&lt;font style=&quot;font-size: 24px&quot;&gt;+&lt;/font&gt;" style="text;html=1;align=center;verticalAlign=middle;resizable=0;points=[];autosize=1;strokeColor=none;fillColor=none;fontSize=14;" vertex="1" parent="1">
          <mxGeometry x="120" y="10" width="30" height="30" as="geometry" />
        </mxCell>
        <mxCell id="HUBFKe5cnwWDwWhOUPrv-100" value="&lt;font style=&quot;font-size: 24px&quot;&gt;+&lt;/font&gt;" style="text;html=1;align=center;verticalAlign=middle;resizable=0;points=[];autosize=1;strokeColor=none;fillColor=none;fontSize=14;" vertex="1" parent="1">
          <mxGeometry x="210" y="10" width="30" height="30" as="geometry" />
        </mxCell>
        <mxCell id="HUBFKe5cnwWDwWhOUPrv-101" value="&lt;font style=&quot;font-size: 24px&quot;&gt;+&lt;/font&gt;" style="text;html=1;align=center;verticalAlign=middle;resizable=0;points=[];autosize=1;strokeColor=none;fillColor=none;fontSize=14;" vertex="1" parent="1">
          <mxGeometry x="300" y="10" width="30" height="30" as="geometry" />
        </mxCell>
        <mxCell id="HUBFKe5cnwWDwWhOUPrv-102" value="&lt;font style=&quot;font-size: 24px&quot;&gt;+&lt;/font&gt;" style="text;html=1;align=center;verticalAlign=middle;resizable=0;points=[];autosize=1;strokeColor=none;fillColor=none;fontSize=14;" vertex="1" parent="1">
          <mxGeometry x="390" y="10" width="30" height="30" as="geometry" />
        </mxCell>
        <mxCell id="HUBFKe5cnwWDwWhOUPrv-103" value="&lt;font style=&quot;font-size: 24px&quot;&gt;+&lt;/font&gt;" style="text;html=1;align=center;verticalAlign=middle;resizable=0;points=[];autosize=1;strokeColor=none;fillColor=none;fontSize=14;" vertex="1" parent="1">
          <mxGeometry x="480" y="10" width="30" height="30" as="geometry" />
        </mxCell>
        <mxCell id="HUBFKe5cnwWDwWhOUPrv-104" value="&lt;font style=&quot;font-size: 24px&quot;&gt;+&lt;/font&gt;" style="text;html=1;align=center;verticalAlign=middle;resizable=0;points=[];autosize=1;strokeColor=none;fillColor=none;fontSize=14;" vertex="1" parent="1">
          <mxGeometry x="570" y="10" width="30" height="30" as="geometry" />
        </mxCell>
        <mxCell id="HUBFKe5cnwWDwWhOUPrv-105" value="&lt;font style=&quot;font-size: 24px&quot;&gt;+&lt;/font&gt;" style="text;html=1;align=center;verticalAlign=middle;resizable=0;points=[];autosize=1;strokeColor=none;fillColor=none;fontSize=14;" vertex="1" parent="1">
          <mxGeometry x="750" y="10" width="30" height="30" as="geometry" />
        </mxCell>
        <mxCell id="HUBFKe5cnwWDwWhOUPrv-106" value="&lt;font style=&quot;font-size: 24px&quot;&gt;+&lt;/font&gt;" style="text;html=1;align=center;verticalAlign=middle;resizable=0;points=[];autosize=1;strokeColor=none;fillColor=none;fontSize=14;" vertex="1" parent="1">
          <mxGeometry x="660" y="10" width="30" height="30" as="geometry" />
        </mxCell>
        <mxCell id="HUBFKe5cnwWDwWhOUPrv-107" value="&lt;font style=&quot;font-size: 24px&quot;&gt;+&lt;/font&gt;" style="text;html=1;align=center;verticalAlign=middle;resizable=0;points=[];autosize=1;strokeColor=none;fillColor=none;fontSize=14;" vertex="1" parent="1">
          <mxGeometry x="840" y="10" width="30" height="30" as="geometry" />
        </mxCell>
        <mxCell id="HUBFKe5cnwWDwWhOUPrv-110" style="edgeStyle=orthogonalEdgeStyle;rounded=0;orthogonalLoop=1;jettySize=auto;html=1;exitX=0.5;exitY=0;exitDx=0;exitDy=0;fontSize=24;strokeWidth=2;" edge="1" parent="1">
          <mxGeometry relative="1" as="geometry">
            <mxPoint x="-45.5" y="-50" as="targetPoint" />
            <mxPoint x="-45.5" y="-20" as="sourcePoint" />
          </mxGeometry>
        </mxCell>
        <mxCell id="HUBFKe5cnwWDwWhOUPrv-118" value="&lt;font style=&quot;font-size: 14px&quot;&gt;a&lt;/font&gt;" style="rounded=0;whiteSpace=wrap;html=1;fillColor=#ffe6cc;strokeColor=#d79b00;" vertex="1" parent="1">
          <mxGeometry x="10" y="-20" width="70" height="30" as="geometry" />
        </mxCell>
        <mxCell id="HUBFKe5cnwWDwWhOUPrv-119" style="edgeStyle=orthogonalEdgeStyle;rounded=0;orthogonalLoop=1;jettySize=auto;html=1;exitX=0.5;exitY=0;exitDx=0;exitDy=0;fontSize=24;strokeWidth=2;" edge="1" parent="1">
          <mxGeometry relative="1" as="geometry">
            <mxPoint x="44.5" y="-50" as="targetPoint" />
            <mxPoint x="44.5" y="-20" as="sourcePoint" />
          </mxGeometry>
        </mxCell>
        <mxCell id="HUBFKe5cnwWDwWhOUPrv-125" value="&lt;font style=&quot;font-size: 14px&quot;&gt;seat&lt;/font&gt;" style="rounded=0;whiteSpace=wrap;html=1;fillColor=#ffe6cc;strokeColor=#d79b00;" vertex="1" parent="1">
          <mxGeometry x="100" y="-20" width="70" height="30" as="geometry" />
        </mxCell>
        <mxCell id="HUBFKe5cnwWDwWhOUPrv-126" style="edgeStyle=orthogonalEdgeStyle;rounded=0;orthogonalLoop=1;jettySize=auto;html=1;exitX=0.5;exitY=0;exitDx=0;exitDy=0;fontSize=24;strokeWidth=2;" edge="1" parent="1">
          <mxGeometry relative="1" as="geometry">
            <mxPoint x="134.5" y="-50" as="targetPoint" />
            <mxPoint x="134.5" y="-20" as="sourcePoint" />
          </mxGeometry>
        </mxCell>
        <mxCell id="HUBFKe5cnwWDwWhOUPrv-127" value="&lt;font style=&quot;font-size: 14px&quot;&gt;[MASK]&lt;/font&gt;" style="rounded=0;whiteSpace=wrap;html=1;fillColor=#ffe6cc;strokeColor=#d79b00;" vertex="1" parent="1">
          <mxGeometry x="190" y="-20" width="70" height="30" as="geometry" />
        </mxCell>
        <mxCell id="HUBFKe5cnwWDwWhOUPrv-128" style="edgeStyle=orthogonalEdgeStyle;rounded=0;orthogonalLoop=1;jettySize=auto;html=1;exitX=0.5;exitY=0;exitDx=0;exitDy=0;fontSize=24;strokeWidth=2;" edge="1" parent="1">
          <mxGeometry relative="1" as="geometry">
            <mxPoint x="224.5" y="-50" as="targetPoint" />
            <mxPoint x="224.5" y="-20" as="sourcePoint" />
          </mxGeometry>
        </mxCell>
        <mxCell id="HUBFKe5cnwWDwWhOUPrv-129" value="&lt;font style=&quot;font-size: 14px&quot;&gt;have&lt;/font&gt;" style="rounded=0;whiteSpace=wrap;html=1;fillColor=#ffe6cc;strokeColor=#d79b00;" vertex="1" parent="1">
          <mxGeometry x="280" y="-20" width="70" height="30" as="geometry" />
        </mxCell>
        <mxCell id="HUBFKe5cnwWDwWhOUPrv-130" style="edgeStyle=orthogonalEdgeStyle;rounded=0;orthogonalLoop=1;jettySize=auto;html=1;exitX=0.5;exitY=0;exitDx=0;exitDy=0;fontSize=24;strokeWidth=2;" edge="1" parent="1">
          <mxGeometry relative="1" as="geometry">
            <mxPoint x="314.5" y="-50" as="targetPoint" />
            <mxPoint x="314.5" y="-20" as="sourcePoint" />
          </mxGeometry>
        </mxCell>
        <mxCell id="HUBFKe5cnwWDwWhOUPrv-131" value="&lt;font style=&quot;font-size: 14px&quot;&gt;a&lt;/font&gt;" style="rounded=0;whiteSpace=wrap;html=1;fillColor=#ffe6cc;strokeColor=#d79b00;" vertex="1" parent="1">
          <mxGeometry x="370" y="-20" width="70" height="30" as="geometry" />
        </mxCell>
        <mxCell id="HUBFKe5cnwWDwWhOUPrv-132" style="edgeStyle=orthogonalEdgeStyle;rounded=0;orthogonalLoop=1;jettySize=auto;html=1;exitX=0.5;exitY=0;exitDx=0;exitDy=0;fontSize=24;strokeWidth=2;" edge="1" parent="1">
          <mxGeometry relative="1" as="geometry">
            <mxPoint x="404.5" y="-50" as="targetPoint" />
            <mxPoint x="404.5" y="-20" as="sourcePoint" />
          </mxGeometry>
        </mxCell>
        <mxCell id="HUBFKe5cnwWDwWhOUPrv-133" value="&lt;span style=&quot;font-size: 14px&quot;&gt;[MASK]&lt;/span&gt;" style="rounded=0;whiteSpace=wrap;html=1;fillColor=#ffe6cc;strokeColor=#d79b00;" vertex="1" parent="1">
          <mxGeometry x="460" y="-20" width="70" height="30" as="geometry" />
        </mxCell>
        <mxCell id="HUBFKe5cnwWDwWhOUPrv-134" style="edgeStyle=orthogonalEdgeStyle;rounded=0;orthogonalLoop=1;jettySize=auto;html=1;exitX=0.5;exitY=0;exitDx=0;exitDy=0;fontSize=24;strokeWidth=2;" edge="1" parent="1">
          <mxGeometry relative="1" as="geometry">
            <mxPoint x="494.5" y="-50" as="targetPoint" />
            <mxPoint x="494.5" y="-20" as="sourcePoint" />
          </mxGeometry>
        </mxCell>
        <mxCell id="HUBFKe5cnwWDwWhOUPrv-135" value="&lt;font style=&quot;font-size: 14px&quot;&gt;rideaux&lt;/font&gt;" style="rounded=0;whiteSpace=wrap;html=1;fillColor=#ffe6cc;strokeColor=#d79b00;" vertex="1" parent="1">
          <mxGeometry x="550" y="-20" width="70" height="30" as="geometry" />
        </mxCell>
        <mxCell id="HUBFKe5cnwWDwWhOUPrv-136" style="edgeStyle=orthogonalEdgeStyle;rounded=0;orthogonalLoop=1;jettySize=auto;html=1;exitX=0.5;exitY=0;exitDx=0;exitDy=0;fontSize=24;strokeWidth=2;" edge="1" parent="1">
          <mxGeometry relative="1" as="geometry">
            <mxPoint x="584.5" y="-50" as="targetPoint" />
            <mxPoint x="584.5" y="-20" as="sourcePoint" />
          </mxGeometry>
        </mxCell>
        <mxCell id="HUBFKe5cnwWDwWhOUPrv-137" value="&lt;span style=&quot;font-size: 14px&quot;&gt;[MASK]&lt;/span&gt;" style="rounded=0;whiteSpace=wrap;html=1;fillColor=#ffe6cc;strokeColor=#d79b00;" vertex="1" parent="1">
          <mxGeometry x="640" y="-20" width="70" height="30" as="geometry" />
        </mxCell>
        <mxCell id="HUBFKe5cnwWDwWhOUPrv-138" style="edgeStyle=orthogonalEdgeStyle;rounded=0;orthogonalLoop=1;jettySize=auto;html=1;exitX=0.5;exitY=0;exitDx=0;exitDy=0;fontSize=24;strokeWidth=2;" edge="1" parent="1">
          <mxGeometry relative="1" as="geometry">
            <mxPoint x="674.5" y="-50" as="targetPoint" />
            <mxPoint x="674.5" y="-20" as="sourcePoint" />
          </mxGeometry>
        </mxCell>
        <mxCell id="HUBFKe5cnwWDwWhOUPrv-139" value="&lt;font style=&quot;font-size: 14px&quot;&gt;relax&lt;/font&gt;" style="rounded=0;whiteSpace=wrap;html=1;fillColor=#ffe6cc;strokeColor=#d79b00;" vertex="1" parent="1">
          <mxGeometry x="730" y="-20" width="70" height="30" as="geometry" />
        </mxCell>
        <mxCell id="HUBFKe5cnwWDwWhOUPrv-140" style="edgeStyle=orthogonalEdgeStyle;rounded=0;orthogonalLoop=1;jettySize=auto;html=1;exitX=0.5;exitY=0;exitDx=0;exitDy=0;fontSize=24;strokeWidth=2;" edge="1" parent="1">
          <mxGeometry relative="1" as="geometry">
            <mxPoint x="764.5" y="-50" as="targetPoint" />
            <mxPoint x="764.5" y="-20" as="sourcePoint" />
          </mxGeometry>
        </mxCell>
        <mxCell id="HUBFKe5cnwWDwWhOUPrv-141" value="&lt;font style=&quot;font-size: 14px&quot;&gt;and&lt;/font&gt;" style="rounded=0;whiteSpace=wrap;html=1;fillColor=#ffe6cc;strokeColor=#d79b00;" vertex="1" parent="1">
          <mxGeometry x="820" y="-20" width="70" height="30" as="geometry" />
        </mxCell>
        <mxCell id="HUBFKe5cnwWDwWhOUPrv-142" style="edgeStyle=orthogonalEdgeStyle;rounded=0;orthogonalLoop=1;jettySize=auto;html=1;exitX=0.5;exitY=0;exitDx=0;exitDy=0;fontSize=24;strokeWidth=2;" edge="1" parent="1">
          <mxGeometry relative="1" as="geometry">
            <mxPoint x="854.5" y="-50" as="targetPoint" />
            <mxPoint x="854.5" y="-20" as="sourcePoint" />
          </mxGeometry>
        </mxCell>
        <mxCell id="HUBFKe5cnwWDwWhOUPrv-145" value="Transformer" style="rounded=0;whiteSpace=wrap;html=1;fontSize=24;fillColor=#bac8d3;strokeColor=#23445d;" vertex="1" parent="1">
          <mxGeometry x="-170" y="-80" width="1060" height="30" as="geometry" />
        </mxCell>
        <mxCell id="HUBFKe5cnwWDwWhOUPrv-146" value="&lt;font style=&quot;font-size: 18px&quot;&gt;Token&lt;br&gt;embeddings&lt;/font&gt;" style="text;html=1;align=center;verticalAlign=middle;resizable=0;points=[];autosize=1;strokeColor=none;fillColor=none;fontSize=24;" vertex="1" parent="1">
          <mxGeometry x="-300" y="-50" width="110" height="70" as="geometry" />
        </mxCell>
        <mxCell id="HUBFKe5cnwWDwWhOUPrv-147" value="&lt;span style=&quot;color: rgb(0 , 0 , 0) ; font-family: &amp;#34;helvetica&amp;#34; ; font-size: 18px ; font-style: normal ; font-weight: 400 ; letter-spacing: normal ; text-align: center ; text-indent: 0px ; text-transform: none ; word-spacing: 0px ; background-color: rgb(255 , 255 , 255) ; display: inline ; float: none&quot;&gt;&amp;nbsp; &amp;nbsp; Position&lt;/span&gt;&lt;br style=&quot;color: rgb(0 , 0 , 0) ; font-family: &amp;#34;helvetica&amp;#34; ; font-size: 18px ; font-style: normal ; font-weight: 400 ; letter-spacing: normal ; text-align: center ; text-indent: 0px ; text-transform: none ; word-spacing: 0px ; background-color: rgb(255 , 255 , 255)&quot;&gt;&lt;span style=&quot;color: rgb(0 , 0 , 0) ; font-family: &amp;#34;helvetica&amp;#34; ; font-size: 18px ; font-style: normal ; font-weight: 400 ; letter-spacing: normal ; text-align: center ; text-indent: 0px ; text-transform: none ; word-spacing: 0px ; background-color: rgb(255 , 255 , 255) ; display: inline ; float: none&quot;&gt;embeddings&lt;/span&gt;" style="text;whiteSpace=wrap;html=1;fontSize=18;" vertex="1" parent="1">
          <mxGeometry x="-300" y="20" width="120" height="60" as="geometry" />
        </mxCell>
        <mxCell id="HUBFKe5cnwWDwWhOUPrv-148" value="&lt;span style=&quot;color: rgb(0 , 0 , 0) ; font-family: &amp;#34;helvetica&amp;#34; ; font-size: 18px ; font-style: normal ; font-weight: 400 ; letter-spacing: normal ; text-align: center ; text-indent: 0px ; text-transform: none ; word-spacing: 0px ; background-color: rgb(255 , 255 , 255) ; display: inline ; float: none&quot;&gt;&amp;nbsp; Language&lt;/span&gt;&lt;br style=&quot;color: rgb(0 , 0 , 0) ; font-family: &amp;#34;helvetica&amp;#34; ; font-size: 18px ; font-style: normal ; font-weight: 400 ; letter-spacing: normal ; text-align: center ; text-indent: 0px ; text-transform: none ; word-spacing: 0px ; background-color: rgb(255 , 255 , 255)&quot;&gt;&lt;span style=&quot;color: rgb(0 , 0 , 0) ; font-family: &amp;#34;helvetica&amp;#34; ; font-size: 18px ; font-style: normal ; font-weight: 400 ; letter-spacing: normal ; text-align: center ; text-indent: 0px ; text-transform: none ; word-spacing: 0px ; background-color: rgb(255 , 255 , 255) ; display: inline ; float: none&quot;&gt;embeddings&lt;/span&gt;" style="text;whiteSpace=wrap;html=1;fontSize=18;" vertex="1" parent="1">
          <mxGeometry x="-300" y="80" width="120" height="60" as="geometry" />
        </mxCell>
        <mxCell id="HUBFKe5cnwWDwWhOUPrv-149" value="&lt;b&gt;Masked Language&lt;br&gt;Modeling(MLM)&lt;/b&gt;" style="text;html=1;align=center;verticalAlign=middle;resizable=0;points=[];autosize=1;strokeColor=none;fillColor=none;fontSize=18;" vertex="1" parent="1">
          <mxGeometry x="-335" y="-130" width="170" height="50" as="geometry" />
        </mxCell>
        <mxCell id="HUBFKe5cnwWDwWhOUPrv-155" style="edgeStyle=orthogonalEdgeStyle;rounded=0;orthogonalLoop=1;jettySize=auto;html=1;fontSize=18;strokeWidth=2;entryX=0.5;entryY=1;entryDx=0;entryDy=0;" edge="1" parent="1" target="HUBFKe5cnwWDwWhOUPrv-150">
          <mxGeometry relative="1" as="geometry">
            <mxPoint x="40" y="-125" as="targetPoint" />
            <mxPoint x="-45" y="-80" as="sourcePoint" />
          </mxGeometry>
        </mxCell>
        <mxCell id="HUBFKe5cnwWDwWhOUPrv-150" value="&lt;font style=&quot;font-size: 14px&quot;&gt;take&lt;/font&gt;" style="rounded=0;whiteSpace=wrap;html=1;fillColor=#f8cecc;strokeColor=#b85450;" vertex="1" parent="1">
          <mxGeometry x="-80" y="-140" width="70" height="30" as="geometry" />
        </mxCell>
        <mxCell id="HUBFKe5cnwWDwWhOUPrv-156" style="edgeStyle=orthogonalEdgeStyle;rounded=0;orthogonalLoop=1;jettySize=auto;html=1;fontSize=18;strokeWidth=2;entryX=0.5;entryY=1;entryDx=0;entryDy=0;" edge="1" parent="1" target="HUBFKe5cnwWDwWhOUPrv-157">
          <mxGeometry relative="1" as="geometry">
            <mxPoint x="760" y="-125" as="targetPoint" />
            <mxPoint x="675" y="-80" as="sourcePoint" />
          </mxGeometry>
        </mxCell>
        <mxCell id="HUBFKe5cnwWDwWhOUPrv-157" value="&lt;font style=&quot;font-size: 14px&quot;&gt;now&lt;/font&gt;" style="rounded=0;whiteSpace=wrap;html=1;fillColor=#f8cecc;strokeColor=#b85450;" vertex="1" parent="1">
          <mxGeometry x="640" y="-140" width="70" height="30" as="geometry" />
        </mxCell>
        <mxCell id="HUBFKe5cnwWDwWhOUPrv-160" style="edgeStyle=orthogonalEdgeStyle;rounded=0;orthogonalLoop=1;jettySize=auto;html=1;fontSize=18;strokeWidth=2;entryX=0.5;entryY=1;entryDx=0;entryDy=0;" edge="1" parent="1" target="HUBFKe5cnwWDwWhOUPrv-161">
          <mxGeometry relative="1" as="geometry">
            <mxPoint x="310" y="-125" as="targetPoint" />
            <mxPoint x="225" y="-80" as="sourcePoint" />
          </mxGeometry>
        </mxCell>
        <mxCell id="HUBFKe5cnwWDwWhOUPrv-161" value="&lt;font style=&quot;font-size: 14px&quot;&gt;[/s]&lt;/font&gt;" style="rounded=0;whiteSpace=wrap;html=1;fillColor=#f8cecc;strokeColor=#b85450;" vertex="1" parent="1">
          <mxGeometry x="190" y="-140" width="70" height="30" as="geometry" />
        </mxCell>
        <mxCell id="HUBFKe5cnwWDwWhOUPrv-162" style="edgeStyle=orthogonalEdgeStyle;rounded=0;orthogonalLoop=1;jettySize=auto;html=1;fontSize=18;strokeWidth=2;entryX=0.5;entryY=1;entryDx=0;entryDy=0;" edge="1" parent="1" target="HUBFKe5cnwWDwWhOUPrv-163">
          <mxGeometry relative="1" as="geometry">
            <mxPoint x="580" y="-125" as="targetPoint" />
            <mxPoint x="495" y="-80" as="sourcePoint" />
          </mxGeometry>
        </mxCell>
        <mxCell id="HUBFKe5cnwWDwWhOUPrv-163" value="&lt;font style=&quot;font-size: 14px&quot;&gt;drink&lt;/font&gt;" style="rounded=0;whiteSpace=wrap;html=1;fillColor=#f8cecc;strokeColor=#b85450;" vertex="1" parent="1">
          <mxGeometry x="460" y="-140" width="70" height="30" as="geometry" />
        </mxCell>
        <mxCell id="HUBFKe5cnwWDwWhOUPrv-164" style="edgeStyle=orthogonalEdgeStyle;rounded=0;orthogonalLoop=1;jettySize=auto;html=1;exitX=0.5;exitY=0;exitDx=0;exitDy=0;fontSize=24;strokeWidth=2;" edge="1" parent="1" source="HUBFKe5cnwWDwWhOUPrv-165">
          <mxGeometry relative="1" as="geometry">
            <mxPoint x="-135" y="270" as="targetPoint" />
          </mxGeometry>
        </mxCell>
        <mxCell id="HUBFKe5cnwWDwWhOUPrv-165" value="&lt;font style=&quot;font-size: 14px&quot;&gt;[/s]&lt;/font&gt;" style="rounded=0;whiteSpace=wrap;html=1;fillColor=#ffe6cc;strokeColor=#d79b00;" vertex="1" parent="1">
          <mxGeometry x="-170" y="300" width="70" height="30" as="geometry" />
        </mxCell>
        <mxCell id="HUBFKe5cnwWDwWhOUPrv-166" value="&lt;font style=&quot;font-size: 14px&quot;&gt;the&lt;/font&gt;" style="rounded=0;whiteSpace=wrap;html=1;fillColor=#ffe6cc;strokeColor=#d79b00;" vertex="1" parent="1">
          <mxGeometry x="-80" y="300" width="70" height="30" as="geometry" />
        </mxCell>
        <mxCell id="HUBFKe5cnwWDwWhOUPrv-167" value="&lt;font style=&quot;font-size: 14px&quot;&gt;0&lt;/font&gt;" style="rounded=0;whiteSpace=wrap;html=1;fillColor=#dae8fc;strokeColor=#6c8ebf;" vertex="1" parent="1">
          <mxGeometry x="-170" y="360" width="70" height="30" as="geometry" />
        </mxCell>
        <mxCell id="HUBFKe5cnwWDwWhOUPrv-168" value="&lt;font style=&quot;font-size: 14px&quot;&gt;1&lt;/font&gt;" style="rounded=0;whiteSpace=wrap;html=1;fillColor=#dae8fc;strokeColor=#6c8ebf;" vertex="1" parent="1">
          <mxGeometry x="-80" y="360" width="70" height="30" as="geometry" />
        </mxCell>
        <mxCell id="HUBFKe5cnwWDwWhOUPrv-169" value="&lt;font style=&quot;font-size: 14px&quot;&gt;5&lt;/font&gt;" style="rounded=0;whiteSpace=wrap;html=1;fillColor=#dae8fc;strokeColor=#6c8ebf;" vertex="1" parent="1">
          <mxGeometry x="820" y="360" width="70" height="30" as="geometry" />
        </mxCell>
        <mxCell id="HUBFKe5cnwWDwWhOUPrv-170" value="&lt;font style=&quot;font-size: 14px&quot;&gt;4&lt;/font&gt;" style="rounded=0;whiteSpace=wrap;html=1;fillColor=#dae8fc;strokeColor=#6c8ebf;" vertex="1" parent="1">
          <mxGeometry x="730" y="360" width="70" height="30" as="geometry" />
        </mxCell>
        <mxCell id="HUBFKe5cnwWDwWhOUPrv-171" value="&lt;font style=&quot;font-size: 14px&quot;&gt;3&lt;/font&gt;" style="rounded=0;whiteSpace=wrap;html=1;fillColor=#dae8fc;strokeColor=#6c8ebf;" vertex="1" parent="1">
          <mxGeometry x="640" y="360" width="70" height="30" as="geometry" />
        </mxCell>
        <mxCell id="HUBFKe5cnwWDwWhOUPrv-172" value="&lt;font style=&quot;font-size: 14px&quot;&gt;2&lt;/font&gt;" style="rounded=0;whiteSpace=wrap;html=1;fillColor=#dae8fc;strokeColor=#6c8ebf;" vertex="1" parent="1">
          <mxGeometry x="550" y="360" width="70" height="30" as="geometry" />
        </mxCell>
        <mxCell id="HUBFKe5cnwWDwWhOUPrv-173" value="&lt;font style=&quot;font-size: 14px&quot;&gt;1&lt;/font&gt;" style="rounded=0;whiteSpace=wrap;html=1;fillColor=#dae8fc;strokeColor=#6c8ebf;" vertex="1" parent="1">
          <mxGeometry x="460" y="360" width="70" height="30" as="geometry" />
        </mxCell>
        <mxCell id="HUBFKe5cnwWDwWhOUPrv-174" value="&lt;font style=&quot;font-size: 14px&quot;&gt;0&lt;/font&gt;" style="rounded=0;whiteSpace=wrap;html=1;fillColor=#dae8fc;strokeColor=#6c8ebf;" vertex="1" parent="1">
          <mxGeometry x="370" y="360" width="70" height="30" as="geometry" />
        </mxCell>
        <mxCell id="HUBFKe5cnwWDwWhOUPrv-175" value="&lt;font style=&quot;font-size: 14px&quot;&gt;5&lt;/font&gt;" style="rounded=0;whiteSpace=wrap;html=1;fillColor=#dae8fc;strokeColor=#6c8ebf;" vertex="1" parent="1">
          <mxGeometry x="280" y="360" width="70" height="30" as="geometry" />
        </mxCell>
        <mxCell id="HUBFKe5cnwWDwWhOUPrv-176" value="&lt;font style=&quot;font-size: 14px&quot;&gt;4&lt;/font&gt;" style="rounded=0;whiteSpace=wrap;html=1;fillColor=#dae8fc;strokeColor=#6c8ebf;" vertex="1" parent="1">
          <mxGeometry x="190" y="360" width="70" height="30" as="geometry" />
        </mxCell>
        <mxCell id="HUBFKe5cnwWDwWhOUPrv-177" value="&lt;font style=&quot;font-size: 14px&quot;&gt;3&lt;/font&gt;" style="rounded=0;whiteSpace=wrap;html=1;fillColor=#dae8fc;strokeColor=#6c8ebf;" vertex="1" parent="1">
          <mxGeometry x="100" y="360" width="70" height="30" as="geometry" />
        </mxCell>
        <mxCell id="HUBFKe5cnwWDwWhOUPrv-178" value="&lt;font style=&quot;font-size: 14px&quot;&gt;2&lt;/font&gt;" style="rounded=0;whiteSpace=wrap;html=1;fillColor=#dae8fc;strokeColor=#6c8ebf;" vertex="1" parent="1">
          <mxGeometry x="10" y="360" width="70" height="30" as="geometry" />
        </mxCell>
        <mxCell id="HUBFKe5cnwWDwWhOUPrv-179" value="&lt;font style=&quot;font-size: 14px&quot;&gt;en&lt;/font&gt;" style="rounded=0;whiteSpace=wrap;html=1;fillColor=#d5e8d4;strokeColor=#82b366;" vertex="1" parent="1">
          <mxGeometry x="-170" y="420" width="70" height="30" as="geometry" />
        </mxCell>
        <mxCell id="HUBFKe5cnwWDwWhOUPrv-180" value="&lt;font style=&quot;font-size: 14px&quot;&gt;en&lt;/font&gt;" style="rounded=0;whiteSpace=wrap;html=1;fillColor=#d5e8d4;strokeColor=#82b366;" vertex="1" parent="1">
          <mxGeometry x="-80" y="420" width="70" height="30" as="geometry" />
        </mxCell>
        <mxCell id="HUBFKe5cnwWDwWhOUPrv-181" value="&lt;font style=&quot;font-size: 14px&quot;&gt;fr&lt;/font&gt;" style="rounded=0;whiteSpace=wrap;html=1;fillColor=#e1d5e7;strokeColor=#9673a6;" vertex="1" parent="1">
          <mxGeometry x="820" y="420" width="70" height="30" as="geometry" />
        </mxCell>
        <mxCell id="HUBFKe5cnwWDwWhOUPrv-182" value="&lt;font style=&quot;font-size: 14px&quot;&gt;fr&lt;/font&gt;" style="rounded=0;whiteSpace=wrap;html=1;fillColor=#e1d5e7;strokeColor=#9673a6;" vertex="1" parent="1">
          <mxGeometry x="730" y="420" width="70" height="30" as="geometry" />
        </mxCell>
        <mxCell id="HUBFKe5cnwWDwWhOUPrv-183" value="&lt;font style=&quot;font-size: 14px&quot;&gt;fr&lt;/font&gt;" style="rounded=0;whiteSpace=wrap;html=1;fillColor=#e1d5e7;strokeColor=#9673a6;" vertex="1" parent="1">
          <mxGeometry x="640" y="420" width="70" height="30" as="geometry" />
        </mxCell>
        <mxCell id="HUBFKe5cnwWDwWhOUPrv-184" value="&lt;font style=&quot;font-size: 14px&quot;&gt;fr&lt;/font&gt;" style="rounded=0;whiteSpace=wrap;html=1;fillColor=#e1d5e7;strokeColor=#9673a6;" vertex="1" parent="1">
          <mxGeometry x="550" y="420" width="70" height="30" as="geometry" />
        </mxCell>
        <mxCell id="HUBFKe5cnwWDwWhOUPrv-185" value="&lt;font style=&quot;font-size: 14px&quot;&gt;fr&lt;/font&gt;" style="rounded=0;whiteSpace=wrap;html=1;fillColor=#e1d5e7;strokeColor=#9673a6;" vertex="1" parent="1">
          <mxGeometry x="460" y="420" width="70" height="30" as="geometry" />
        </mxCell>
        <mxCell id="HUBFKe5cnwWDwWhOUPrv-186" value="&lt;font style=&quot;font-size: 14px&quot;&gt;fr&lt;/font&gt;" style="rounded=0;whiteSpace=wrap;html=1;fillColor=#e1d5e7;strokeColor=#9673a6;" vertex="1" parent="1">
          <mxGeometry x="370" y="420" width="70" height="30" as="geometry" />
        </mxCell>
        <mxCell id="HUBFKe5cnwWDwWhOUPrv-187" value="&lt;font style=&quot;font-size: 14px&quot;&gt;en&lt;/font&gt;" style="rounded=0;whiteSpace=wrap;html=1;fillColor=#d5e8d4;strokeColor=#82b366;" vertex="1" parent="1">
          <mxGeometry x="280" y="420" width="70" height="30" as="geometry" />
        </mxCell>
        <mxCell id="HUBFKe5cnwWDwWhOUPrv-188" value="&lt;font style=&quot;font-size: 14px&quot;&gt;en&lt;/font&gt;" style="rounded=0;whiteSpace=wrap;html=1;fillColor=#d5e8d4;strokeColor=#82b366;" vertex="1" parent="1">
          <mxGeometry x="190" y="420" width="70" height="30" as="geometry" />
        </mxCell>
        <mxCell id="HUBFKe5cnwWDwWhOUPrv-189" value="&lt;font style=&quot;font-size: 14px&quot;&gt;en&lt;/font&gt;" style="rounded=0;whiteSpace=wrap;html=1;fillColor=#d5e8d4;strokeColor=#82b366;" vertex="1" parent="1">
          <mxGeometry x="100" y="420" width="70" height="30" as="geometry" />
        </mxCell>
        <mxCell id="HUBFKe5cnwWDwWhOUPrv-190" value="&lt;font style=&quot;font-size: 14px&quot;&gt;en&lt;/font&gt;" style="rounded=0;whiteSpace=wrap;html=1;fillColor=#d5e8d4;strokeColor=#82b366;" vertex="1" parent="1">
          <mxGeometry x="10" y="420" width="70" height="30" as="geometry" />
        </mxCell>
        <mxCell id="HUBFKe5cnwWDwWhOUPrv-191" value="&lt;font style=&quot;font-size: 24px&quot;&gt;+&lt;/font&gt;" style="text;html=1;align=center;verticalAlign=middle;resizable=0;points=[];autosize=1;strokeColor=none;fillColor=none;fontSize=14;" vertex="1" parent="1">
          <mxGeometry x="-150" y="390" width="30" height="30" as="geometry" />
        </mxCell>
        <mxCell id="HUBFKe5cnwWDwWhOUPrv-192" value="&lt;font style=&quot;font-size: 24px&quot;&gt;+&lt;/font&gt;" style="text;html=1;align=center;verticalAlign=middle;resizable=0;points=[];autosize=1;strokeColor=none;fillColor=none;fontSize=14;" vertex="1" parent="1">
          <mxGeometry x="-60" y="390" width="30" height="30" as="geometry" />
        </mxCell>
        <mxCell id="HUBFKe5cnwWDwWhOUPrv-193" value="&lt;font style=&quot;font-size: 24px&quot;&gt;+&lt;/font&gt;" style="text;html=1;align=center;verticalAlign=middle;resizable=0;points=[];autosize=1;strokeColor=none;fillColor=none;fontSize=14;" vertex="1" parent="1">
          <mxGeometry x="30" y="390" width="30" height="30" as="geometry" />
        </mxCell>
        <mxCell id="HUBFKe5cnwWDwWhOUPrv-194" value="&lt;font style=&quot;font-size: 24px&quot;&gt;+&lt;/font&gt;" style="text;html=1;align=center;verticalAlign=middle;resizable=0;points=[];autosize=1;strokeColor=none;fillColor=none;fontSize=14;" vertex="1" parent="1">
          <mxGeometry x="120" y="390" width="30" height="30" as="geometry" />
        </mxCell>
        <mxCell id="HUBFKe5cnwWDwWhOUPrv-195" value="&lt;font style=&quot;font-size: 24px&quot;&gt;+&lt;/font&gt;" style="text;html=1;align=center;verticalAlign=middle;resizable=0;points=[];autosize=1;strokeColor=none;fillColor=none;fontSize=14;" vertex="1" parent="1">
          <mxGeometry x="210" y="390" width="30" height="30" as="geometry" />
        </mxCell>
        <mxCell id="HUBFKe5cnwWDwWhOUPrv-196" value="&lt;font style=&quot;font-size: 24px&quot;&gt;+&lt;/font&gt;" style="text;html=1;align=center;verticalAlign=middle;resizable=0;points=[];autosize=1;strokeColor=none;fillColor=none;fontSize=14;" vertex="1" parent="1">
          <mxGeometry x="300" y="390" width="30" height="30" as="geometry" />
        </mxCell>
        <mxCell id="HUBFKe5cnwWDwWhOUPrv-197" value="&lt;font style=&quot;font-size: 24px&quot;&gt;+&lt;/font&gt;" style="text;html=1;align=center;verticalAlign=middle;resizable=0;points=[];autosize=1;strokeColor=none;fillColor=none;fontSize=14;" vertex="1" parent="1">
          <mxGeometry x="390" y="390" width="30" height="30" as="geometry" />
        </mxCell>
        <mxCell id="HUBFKe5cnwWDwWhOUPrv-198" value="&lt;font style=&quot;font-size: 24px&quot;&gt;+&lt;/font&gt;" style="text;html=1;align=center;verticalAlign=middle;resizable=0;points=[];autosize=1;strokeColor=none;fillColor=none;fontSize=14;" vertex="1" parent="1">
          <mxGeometry x="480" y="390" width="30" height="30" as="geometry" />
        </mxCell>
        <mxCell id="HUBFKe5cnwWDwWhOUPrv-199" value="&lt;font style=&quot;font-size: 24px&quot;&gt;+&lt;/font&gt;" style="text;html=1;align=center;verticalAlign=middle;resizable=0;points=[];autosize=1;strokeColor=none;fillColor=none;fontSize=14;" vertex="1" parent="1">
          <mxGeometry x="570" y="390" width="30" height="30" as="geometry" />
        </mxCell>
        <mxCell id="HUBFKe5cnwWDwWhOUPrv-200" value="&lt;font style=&quot;font-size: 24px&quot;&gt;+&lt;/font&gt;" style="text;html=1;align=center;verticalAlign=middle;resizable=0;points=[];autosize=1;strokeColor=none;fillColor=none;fontSize=14;" vertex="1" parent="1">
          <mxGeometry x="750" y="390" width="30" height="30" as="geometry" />
        </mxCell>
        <mxCell id="HUBFKe5cnwWDwWhOUPrv-201" value="&lt;font style=&quot;font-size: 24px&quot;&gt;+&lt;/font&gt;" style="text;html=1;align=center;verticalAlign=middle;resizable=0;points=[];autosize=1;strokeColor=none;fillColor=none;fontSize=14;" vertex="1" parent="1">
          <mxGeometry x="660" y="390" width="30" height="30" as="geometry" />
        </mxCell>
        <mxCell id="HUBFKe5cnwWDwWhOUPrv-202" value="&lt;font style=&quot;font-size: 24px&quot;&gt;+&lt;/font&gt;" style="text;html=1;align=center;verticalAlign=middle;resizable=0;points=[];autosize=1;strokeColor=none;fillColor=none;fontSize=14;" vertex="1" parent="1">
          <mxGeometry x="840" y="390" width="30" height="30" as="geometry" />
        </mxCell>
        <mxCell id="HUBFKe5cnwWDwWhOUPrv-203" value="&lt;font style=&quot;font-size: 24px&quot;&gt;+&lt;/font&gt;" style="text;html=1;align=center;verticalAlign=middle;resizable=0;points=[];autosize=1;strokeColor=none;fillColor=none;fontSize=14;" vertex="1" parent="1">
          <mxGeometry x="-150" y="330" width="30" height="30" as="geometry" />
        </mxCell>
        <mxCell id="HUBFKe5cnwWDwWhOUPrv-204" value="&lt;font style=&quot;font-size: 24px&quot;&gt;+&lt;/font&gt;" style="text;html=1;align=center;verticalAlign=middle;resizable=0;points=[];autosize=1;strokeColor=none;fillColor=none;fontSize=14;" vertex="1" parent="1">
          <mxGeometry x="-60" y="330" width="30" height="30" as="geometry" />
        </mxCell>
        <mxCell id="HUBFKe5cnwWDwWhOUPrv-205" value="&lt;font style=&quot;font-size: 24px&quot;&gt;+&lt;/font&gt;" style="text;html=1;align=center;verticalAlign=middle;resizable=0;points=[];autosize=1;strokeColor=none;fillColor=none;fontSize=14;" vertex="1" parent="1">
          <mxGeometry x="30" y="330" width="30" height="30" as="geometry" />
        </mxCell>
        <mxCell id="HUBFKe5cnwWDwWhOUPrv-206" value="&lt;font style=&quot;font-size: 24px&quot;&gt;+&lt;/font&gt;" style="text;html=1;align=center;verticalAlign=middle;resizable=0;points=[];autosize=1;strokeColor=none;fillColor=none;fontSize=14;" vertex="1" parent="1">
          <mxGeometry x="120" y="330" width="30" height="30" as="geometry" />
        </mxCell>
        <mxCell id="HUBFKe5cnwWDwWhOUPrv-207" value="&lt;font style=&quot;font-size: 24px&quot;&gt;+&lt;/font&gt;" style="text;html=1;align=center;verticalAlign=middle;resizable=0;points=[];autosize=1;strokeColor=none;fillColor=none;fontSize=14;" vertex="1" parent="1">
          <mxGeometry x="210" y="330" width="30" height="30" as="geometry" />
        </mxCell>
        <mxCell id="HUBFKe5cnwWDwWhOUPrv-208" value="&lt;font style=&quot;font-size: 24px&quot;&gt;+&lt;/font&gt;" style="text;html=1;align=center;verticalAlign=middle;resizable=0;points=[];autosize=1;strokeColor=none;fillColor=none;fontSize=14;" vertex="1" parent="1">
          <mxGeometry x="300" y="330" width="30" height="30" as="geometry" />
        </mxCell>
        <mxCell id="HUBFKe5cnwWDwWhOUPrv-209" value="&lt;font style=&quot;font-size: 24px&quot;&gt;+&lt;/font&gt;" style="text;html=1;align=center;verticalAlign=middle;resizable=0;points=[];autosize=1;strokeColor=none;fillColor=none;fontSize=14;" vertex="1" parent="1">
          <mxGeometry x="390" y="330" width="30" height="30" as="geometry" />
        </mxCell>
        <mxCell id="HUBFKe5cnwWDwWhOUPrv-210" value="&lt;font style=&quot;font-size: 24px&quot;&gt;+&lt;/font&gt;" style="text;html=1;align=center;verticalAlign=middle;resizable=0;points=[];autosize=1;strokeColor=none;fillColor=none;fontSize=14;" vertex="1" parent="1">
          <mxGeometry x="480" y="330" width="30" height="30" as="geometry" />
        </mxCell>
        <mxCell id="HUBFKe5cnwWDwWhOUPrv-211" value="&lt;font style=&quot;font-size: 24px&quot;&gt;+&lt;/font&gt;" style="text;html=1;align=center;verticalAlign=middle;resizable=0;points=[];autosize=1;strokeColor=none;fillColor=none;fontSize=14;" vertex="1" parent="1">
          <mxGeometry x="570" y="330" width="30" height="30" as="geometry" />
        </mxCell>
        <mxCell id="HUBFKe5cnwWDwWhOUPrv-212" value="&lt;font style=&quot;font-size: 24px&quot;&gt;+&lt;/font&gt;" style="text;html=1;align=center;verticalAlign=middle;resizable=0;points=[];autosize=1;strokeColor=none;fillColor=none;fontSize=14;" vertex="1" parent="1">
          <mxGeometry x="750" y="330" width="30" height="30" as="geometry" />
        </mxCell>
        <mxCell id="HUBFKe5cnwWDwWhOUPrv-213" value="&lt;font style=&quot;font-size: 24px&quot;&gt;+&lt;/font&gt;" style="text;html=1;align=center;verticalAlign=middle;resizable=0;points=[];autosize=1;strokeColor=none;fillColor=none;fontSize=14;" vertex="1" parent="1">
          <mxGeometry x="660" y="330" width="30" height="30" as="geometry" />
        </mxCell>
        <mxCell id="HUBFKe5cnwWDwWhOUPrv-214" value="&lt;font style=&quot;font-size: 24px&quot;&gt;+&lt;/font&gt;" style="text;html=1;align=center;verticalAlign=middle;resizable=0;points=[];autosize=1;strokeColor=none;fillColor=none;fontSize=14;" vertex="1" parent="1">
          <mxGeometry x="840" y="330" width="30" height="30" as="geometry" />
        </mxCell>
        <mxCell id="HUBFKe5cnwWDwWhOUPrv-215" style="edgeStyle=orthogonalEdgeStyle;rounded=0;orthogonalLoop=1;jettySize=auto;html=1;exitX=0.5;exitY=0;exitDx=0;exitDy=0;fontSize=24;strokeWidth=2;" edge="1" parent="1">
          <mxGeometry relative="1" as="geometry">
            <mxPoint x="-45.5" y="270" as="targetPoint" />
            <mxPoint x="-45.5" y="300" as="sourcePoint" />
          </mxGeometry>
        </mxCell>
        <mxCell id="HUBFKe5cnwWDwWhOUPrv-216" value="&lt;span style=&quot;font-size: 14px&quot;&gt;[MASK]&lt;/span&gt;" style="rounded=0;whiteSpace=wrap;html=1;fillColor=#ffe6cc;strokeColor=#d79b00;" vertex="1" parent="1">
          <mxGeometry x="10" y="300" width="70" height="30" as="geometry" />
        </mxCell>
        <mxCell id="HUBFKe5cnwWDwWhOUPrv-217" style="edgeStyle=orthogonalEdgeStyle;rounded=0;orthogonalLoop=1;jettySize=auto;html=1;exitX=0.5;exitY=0;exitDx=0;exitDy=0;fontSize=24;strokeWidth=2;" edge="1" parent="1">
          <mxGeometry relative="1" as="geometry">
            <mxPoint x="44.5" y="270" as="targetPoint" />
            <mxPoint x="44.5" y="300" as="sourcePoint" />
          </mxGeometry>
        </mxCell>
        <mxCell id="HUBFKe5cnwWDwWhOUPrv-218" value="&lt;span style=&quot;font-size: 14px&quot;&gt;[MASK]&lt;/span&gt;" style="rounded=0;whiteSpace=wrap;html=1;fillColor=#ffe6cc;strokeColor=#d79b00;" vertex="1" parent="1">
          <mxGeometry x="100" y="300" width="70" height="30" as="geometry" />
        </mxCell>
        <mxCell id="HUBFKe5cnwWDwWhOUPrv-219" style="edgeStyle=orthogonalEdgeStyle;rounded=0;orthogonalLoop=1;jettySize=auto;html=1;exitX=0.5;exitY=0;exitDx=0;exitDy=0;fontSize=24;strokeWidth=2;" edge="1" parent="1">
          <mxGeometry relative="1" as="geometry">
            <mxPoint x="134.5" y="270" as="targetPoint" />
            <mxPoint x="134.5" y="300" as="sourcePoint" />
          </mxGeometry>
        </mxCell>
        <mxCell id="HUBFKe5cnwWDwWhOUPrv-220" value="&lt;font style=&quot;font-size: 14px&quot;&gt;blue&lt;/font&gt;" style="rounded=0;whiteSpace=wrap;html=1;fillColor=#ffe6cc;strokeColor=#d79b00;" vertex="1" parent="1">
          <mxGeometry x="190" y="300" width="70" height="30" as="geometry" />
        </mxCell>
        <mxCell id="HUBFKe5cnwWDwWhOUPrv-221" style="edgeStyle=orthogonalEdgeStyle;rounded=0;orthogonalLoop=1;jettySize=auto;html=1;exitX=0.5;exitY=0;exitDx=0;exitDy=0;fontSize=24;strokeWidth=2;" edge="1" parent="1">
          <mxGeometry relative="1" as="geometry">
            <mxPoint x="224.5" y="270" as="targetPoint" />
            <mxPoint x="224.5" y="300" as="sourcePoint" />
          </mxGeometry>
        </mxCell>
        <mxCell id="HUBFKe5cnwWDwWhOUPrv-222" value="&lt;span style=&quot;font-size: 14px&quot;&gt;[/s]&lt;/span&gt;" style="rounded=0;whiteSpace=wrap;html=1;fillColor=#ffe6cc;strokeColor=#d79b00;" vertex="1" parent="1">
          <mxGeometry x="280" y="300" width="70" height="30" as="geometry" />
        </mxCell>
        <mxCell id="HUBFKe5cnwWDwWhOUPrv-223" style="edgeStyle=orthogonalEdgeStyle;rounded=0;orthogonalLoop=1;jettySize=auto;html=1;exitX=0.5;exitY=0;exitDx=0;exitDy=0;fontSize=24;strokeWidth=2;" edge="1" parent="1">
          <mxGeometry relative="1" as="geometry">
            <mxPoint x="314.5" y="270" as="targetPoint" />
            <mxPoint x="314.5" y="300" as="sourcePoint" />
          </mxGeometry>
        </mxCell>
        <mxCell id="HUBFKe5cnwWDwWhOUPrv-224" value="&lt;span style=&quot;font-size: 14px&quot;&gt;[/s]&lt;/span&gt;" style="rounded=0;whiteSpace=wrap;html=1;fillColor=#ffe6cc;strokeColor=#d79b00;" vertex="1" parent="1">
          <mxGeometry x="370" y="300" width="70" height="30" as="geometry" />
        </mxCell>
        <mxCell id="HUBFKe5cnwWDwWhOUPrv-225" style="edgeStyle=orthogonalEdgeStyle;rounded=0;orthogonalLoop=1;jettySize=auto;html=1;exitX=0.5;exitY=0;exitDx=0;exitDy=0;fontSize=24;strokeWidth=2;" edge="1" parent="1">
          <mxGeometry relative="1" as="geometry">
            <mxPoint x="404.5" y="270" as="targetPoint" />
            <mxPoint x="404.5" y="300" as="sourcePoint" />
          </mxGeometry>
        </mxCell>
        <mxCell id="HUBFKe5cnwWDwWhOUPrv-226" value="&lt;span style=&quot;font-size: 14px&quot;&gt;[MASK]&lt;/span&gt;" style="rounded=0;whiteSpace=wrap;html=1;fillColor=#ffe6cc;strokeColor=#d79b00;" vertex="1" parent="1">
          <mxGeometry x="460" y="300" width="70" height="30" as="geometry" />
        </mxCell>
        <mxCell id="HUBFKe5cnwWDwWhOUPrv-227" style="edgeStyle=orthogonalEdgeStyle;rounded=0;orthogonalLoop=1;jettySize=auto;html=1;exitX=0.5;exitY=0;exitDx=0;exitDy=0;fontSize=24;strokeWidth=2;" edge="1" parent="1">
          <mxGeometry relative="1" as="geometry">
            <mxPoint x="494.5" y="270" as="targetPoint" />
            <mxPoint x="494.5" y="300" as="sourcePoint" />
          </mxGeometry>
        </mxCell>
        <mxCell id="HUBFKe5cnwWDwWhOUPrv-228" value="&lt;div&gt;&lt;font style=&quot;font-size: 14px&quot;&gt;rideaux&lt;/font&gt;&lt;/div&gt;" style="rounded=0;whiteSpace=wrap;html=1;fillColor=#ffe6cc;strokeColor=#d79b00;" vertex="1" parent="1">
          <mxGeometry x="550" y="300" width="70" height="30" as="geometry" />
        </mxCell>
        <mxCell id="HUBFKe5cnwWDwWhOUPrv-229" style="edgeStyle=orthogonalEdgeStyle;rounded=0;orthogonalLoop=1;jettySize=auto;html=1;exitX=0.5;exitY=0;exitDx=0;exitDy=0;fontSize=24;strokeWidth=2;" edge="1" parent="1">
          <mxGeometry relative="1" as="geometry">
            <mxPoint x="584.5" y="270" as="targetPoint" />
            <mxPoint x="584.5" y="300" as="sourcePoint" />
          </mxGeometry>
        </mxCell>
        <mxCell id="HUBFKe5cnwWDwWhOUPrv-230" value="&lt;span style=&quot;font-size: 14px&quot;&gt;étalent&lt;/span&gt;" style="rounded=0;whiteSpace=wrap;html=1;fillColor=#ffe6cc;strokeColor=#d79b00;" vertex="1" parent="1">
          <mxGeometry x="640" y="300" width="70" height="30" as="geometry" />
        </mxCell>
        <mxCell id="HUBFKe5cnwWDwWhOUPrv-231" style="edgeStyle=orthogonalEdgeStyle;rounded=0;orthogonalLoop=1;jettySize=auto;html=1;exitX=0.5;exitY=0;exitDx=0;exitDy=0;fontSize=24;strokeWidth=2;" edge="1" parent="1">
          <mxGeometry relative="1" as="geometry">
            <mxPoint x="674.5" y="270" as="targetPoint" />
            <mxPoint x="674.5" y="300" as="sourcePoint" />
          </mxGeometry>
        </mxCell>
        <mxCell id="HUBFKe5cnwWDwWhOUPrv-232" value="&lt;span style=&quot;font-size: 14px&quot;&gt;[MASK]&lt;/span&gt;" style="rounded=0;whiteSpace=wrap;html=1;fillColor=#ffe6cc;strokeColor=#d79b00;" vertex="1" parent="1">
          <mxGeometry x="730" y="300" width="70" height="30" as="geometry" />
        </mxCell>
        <mxCell id="HUBFKe5cnwWDwWhOUPrv-233" style="edgeStyle=orthogonalEdgeStyle;rounded=0;orthogonalLoop=1;jettySize=auto;html=1;exitX=0.5;exitY=0;exitDx=0;exitDy=0;fontSize=24;strokeWidth=2;" edge="1" parent="1">
          <mxGeometry relative="1" as="geometry">
            <mxPoint x="764.5" y="270" as="targetPoint" />
            <mxPoint x="764.5" y="300" as="sourcePoint" />
          </mxGeometry>
        </mxCell>
        <mxCell id="HUBFKe5cnwWDwWhOUPrv-234" value="&lt;span style=&quot;font-size: 14px&quot;&gt;[/s]&lt;/span&gt;" style="rounded=0;whiteSpace=wrap;html=1;fillColor=#ffe6cc;strokeColor=#d79b00;" vertex="1" parent="1">
          <mxGeometry x="820" y="300" width="70" height="30" as="geometry" />
        </mxCell>
        <mxCell id="HUBFKe5cnwWDwWhOUPrv-235" style="edgeStyle=orthogonalEdgeStyle;rounded=0;orthogonalLoop=1;jettySize=auto;html=1;exitX=0.5;exitY=0;exitDx=0;exitDy=0;fontSize=24;strokeWidth=2;" edge="1" parent="1">
          <mxGeometry relative="1" as="geometry">
            <mxPoint x="854.5" y="270" as="targetPoint" />
            <mxPoint x="854.5" y="300" as="sourcePoint" />
          </mxGeometry>
        </mxCell>
        <mxCell id="HUBFKe5cnwWDwWhOUPrv-236" value="Transformer" style="rounded=0;whiteSpace=wrap;html=1;fontSize=24;fillColor=#bac8d3;strokeColor=#23445d;" vertex="1" parent="1">
          <mxGeometry x="-170" y="240" width="1060" height="30" as="geometry" />
        </mxCell>
        <mxCell id="HUBFKe5cnwWDwWhOUPrv-237" value="&lt;font style=&quot;font-size: 18px&quot;&gt;Token&lt;br&gt;embeddings&lt;/font&gt;" style="text;html=1;align=center;verticalAlign=middle;resizable=0;points=[];autosize=1;strokeColor=none;fillColor=none;fontSize=24;" vertex="1" parent="1">
          <mxGeometry x="-300" y="270" width="110" height="70" as="geometry" />
        </mxCell>
        <mxCell id="HUBFKe5cnwWDwWhOUPrv-238" value="&lt;span style=&quot;color: rgb(0 , 0 , 0) ; font-family: &amp;#34;helvetica&amp;#34; ; font-size: 18px ; font-style: normal ; font-weight: 400 ; letter-spacing: normal ; text-align: center ; text-indent: 0px ; text-transform: none ; word-spacing: 0px ; background-color: rgb(255 , 255 , 255) ; display: inline ; float: none&quot;&gt;&amp;nbsp; &amp;nbsp; Position&lt;/span&gt;&lt;br style=&quot;color: rgb(0 , 0 , 0) ; font-family: &amp;#34;helvetica&amp;#34; ; font-size: 18px ; font-style: normal ; font-weight: 400 ; letter-spacing: normal ; text-align: center ; text-indent: 0px ; text-transform: none ; word-spacing: 0px ; background-color: rgb(255 , 255 , 255)&quot;&gt;&lt;span style=&quot;color: rgb(0 , 0 , 0) ; font-family: &amp;#34;helvetica&amp;#34; ; font-size: 18px ; font-style: normal ; font-weight: 400 ; letter-spacing: normal ; text-align: center ; text-indent: 0px ; text-transform: none ; word-spacing: 0px ; background-color: rgb(255 , 255 , 255) ; display: inline ; float: none&quot;&gt;embeddings&lt;/span&gt;" style="text;whiteSpace=wrap;html=1;fontSize=18;" vertex="1" parent="1">
          <mxGeometry x="-300" y="340" width="120" height="60" as="geometry" />
        </mxCell>
        <mxCell id="HUBFKe5cnwWDwWhOUPrv-239" value="&lt;span style=&quot;color: rgb(0 , 0 , 0) ; font-family: &amp;#34;helvetica&amp;#34; ; font-size: 18px ; font-style: normal ; font-weight: 400 ; letter-spacing: normal ; text-align: center ; text-indent: 0px ; text-transform: none ; word-spacing: 0px ; background-color: rgb(255 , 255 , 255) ; display: inline ; float: none&quot;&gt;&amp;nbsp; Language&lt;/span&gt;&lt;br style=&quot;color: rgb(0 , 0 , 0) ; font-family: &amp;#34;helvetica&amp;#34; ; font-size: 18px ; font-style: normal ; font-weight: 400 ; letter-spacing: normal ; text-align: center ; text-indent: 0px ; text-transform: none ; word-spacing: 0px ; background-color: rgb(255 , 255 , 255)&quot;&gt;&lt;span style=&quot;color: rgb(0 , 0 , 0) ; font-family: &amp;#34;helvetica&amp;#34; ; font-size: 18px ; font-style: normal ; font-weight: 400 ; letter-spacing: normal ; text-align: center ; text-indent: 0px ; text-transform: none ; word-spacing: 0px ; background-color: rgb(255 , 255 , 255) ; display: inline ; float: none&quot;&gt;embeddings&lt;/span&gt;" style="text;whiteSpace=wrap;html=1;fontSize=18;" vertex="1" parent="1">
          <mxGeometry x="-300" y="400" width="120" height="60" as="geometry" />
        </mxCell>
        <mxCell id="HUBFKe5cnwWDwWhOUPrv-240" value="&lt;b&gt;Translation Language&lt;br&gt;Modeling(MLM)&lt;/b&gt;" style="text;html=1;align=center;verticalAlign=middle;resizable=0;points=[];autosize=1;strokeColor=none;fillColor=none;fontSize=18;" vertex="1" parent="1">
          <mxGeometry x="-350" y="190" width="200" height="50" as="geometry" />
        </mxCell>
        <mxCell id="HUBFKe5cnwWDwWhOUPrv-241" style="edgeStyle=orthogonalEdgeStyle;rounded=0;orthogonalLoop=1;jettySize=auto;html=1;fontSize=18;strokeWidth=2;entryX=0.5;entryY=1;entryDx=0;entryDy=0;" edge="1" parent="1" target="HUBFKe5cnwWDwWhOUPrv-242">
          <mxGeometry relative="1" as="geometry">
            <mxPoint x="130" y="195" as="targetPoint" />
            <mxPoint x="45" y="240" as="sourcePoint" />
          </mxGeometry>
        </mxCell>
        <mxCell id="HUBFKe5cnwWDwWhOUPrv-242" value="&lt;font style=&quot;font-size: 14px&quot;&gt;curtains&lt;/font&gt;" style="rounded=0;whiteSpace=wrap;html=1;fillColor=#f8cecc;strokeColor=#b85450;" vertex="1" parent="1">
          <mxGeometry x="10" y="180" width="70" height="30" as="geometry" />
        </mxCell>
        <mxCell id="HUBFKe5cnwWDwWhOUPrv-243" style="edgeStyle=orthogonalEdgeStyle;rounded=0;orthogonalLoop=1;jettySize=auto;html=1;fontSize=18;strokeWidth=2;entryX=0.5;entryY=1;entryDx=0;entryDy=0;" edge="1" parent="1" target="HUBFKe5cnwWDwWhOUPrv-244">
          <mxGeometry relative="1" as="geometry">
            <mxPoint x="850" y="195" as="targetPoint" />
            <mxPoint x="765" y="240" as="sourcePoint" />
          </mxGeometry>
        </mxCell>
        <mxCell id="HUBFKe5cnwWDwWhOUPrv-244" value="&lt;font style=&quot;font-size: 14px&quot;&gt;bleus&lt;/font&gt;" style="rounded=0;whiteSpace=wrap;html=1;fillColor=#f8cecc;strokeColor=#b85450;" vertex="1" parent="1">
          <mxGeometry x="730" y="180" width="70" height="30" as="geometry" />
        </mxCell>
        <mxCell id="HUBFKe5cnwWDwWhOUPrv-245" style="edgeStyle=orthogonalEdgeStyle;rounded=0;orthogonalLoop=1;jettySize=auto;html=1;fontSize=18;strokeWidth=2;entryX=0.5;entryY=1;entryDx=0;entryDy=0;" edge="1" parent="1" target="HUBFKe5cnwWDwWhOUPrv-246">
          <mxGeometry relative="1" as="geometry">
            <mxPoint x="220" y="195" as="targetPoint" />
            <mxPoint x="135" y="240" as="sourcePoint" />
          </mxGeometry>
        </mxCell>
        <mxCell id="HUBFKe5cnwWDwWhOUPrv-246" value="&lt;font style=&quot;font-size: 14px&quot;&gt;were&lt;/font&gt;" style="rounded=0;whiteSpace=wrap;html=1;fillColor=#f8cecc;strokeColor=#b85450;" vertex="1" parent="1">
          <mxGeometry x="100" y="180" width="70" height="30" as="geometry" />
        </mxCell>
        <mxCell id="HUBFKe5cnwWDwWhOUPrv-247" style="edgeStyle=orthogonalEdgeStyle;rounded=0;orthogonalLoop=1;jettySize=auto;html=1;fontSize=18;strokeWidth=2;entryX=0.5;entryY=1;entryDx=0;entryDy=0;" edge="1" parent="1" target="HUBFKe5cnwWDwWhOUPrv-248">
          <mxGeometry relative="1" as="geometry">
            <mxPoint x="580" y="195" as="targetPoint" />
            <mxPoint x="495" y="240" as="sourcePoint" />
          </mxGeometry>
        </mxCell>
        <mxCell id="HUBFKe5cnwWDwWhOUPrv-248" value="&lt;font style=&quot;font-size: 14px&quot;&gt;les&lt;/font&gt;" style="rounded=0;whiteSpace=wrap;html=1;fillColor=#f8cecc;strokeColor=#b85450;" vertex="1" parent="1">
          <mxGeometry x="460" y="180" width="70" height="30" as="geometry" />
        </mxCell>
      </root>
    </mxGraphModel>
  </diagram>
</mxfile>
